<svg width="18" height="18" viewBox="0 0 18 18" fill="none" xmlns="http://www.w3.org/2000/svg">
<path d="M9.00001 0C5.07001 0 1.74001 2.52 0.51001 6H17.49C16.26 2.52 12.93 0 9.00001 0Z" fill="#E3E3E3"/>
<path d="M9.00001 18C12.93 18 16.26 15.51 17.49 12H0.51001C1.74001 15.51 5.07001 18 9.00001 18Z" fill="#ED4C5C"/>
<path d="M0.51 6C0.18 6.93 0 7.95 0 9C0 10.05 0.18 11.07 0.51 12H17.49C17.82 11.07 18 10.05 18 9C18 7.95 17.82 6.93 17.49 6H0.51Z" fill="#428BC1"/>
<path d="M9.56998 5.10001H3.59998V9.24001C3.59998 12 6.47998 12.84 6.59998 12.9C6.71998 12.84 9.59998 12 9.59998 9.24001V5.10001H9.56998Z" fill="#F9F9F9"/>
<path d="M4.19995 5.7V9.27C4.19995 10.95 5.48995 11.85 6.59995 12.3C7.70995 11.85 8.99995 10.95 8.99995 9.27V5.7H4.19995Z" fill="#ED4C5C"/>
<path d="M6.29993 6.30002H6.89993V10.5H6.29993V6.30002Z" fill="#F9F9F9"/>
<path d="M5.09998 8.10002H8.09998V8.70002H5.09998V8.10002ZM5.69998 6.90002H7.49998V7.50002H5.69998V6.90002Z" fill="#F9F9F9"/>
<path d="M6.59997 9.90001C6.20997 9.90001 5.84997 10.08 5.63997 10.38C5.48997 10.26 5.30997 10.2 5.09997 10.2C4.85997 10.2 4.61997 10.29 4.46997 10.47C4.88997 11.4 5.78997 11.97 6.59997 12.3C7.40997 11.97 8.30997 11.4 8.72997 10.47C8.57997 10.29 8.33997 10.2 8.09997 10.2C7.88997 10.2 7.70997 10.26 7.55997 10.38C7.34997 10.08 6.98997 9.90001 6.59997 9.90001Z" fill="#428BC1"/>
</svg>
