<svg width="16" height="16" viewBox="0 0 16 16" fill="none" xmlns="http://www.w3.org/2000/svg">
<path d="M12.0208 11.078L14.8762 13.9326L13.9328 14.876L11.0782 12.0206C10.016 12.8721 8.69483 13.3352 7.3335 13.3333C4.0215 13.3333 1.3335 10.6453 1.3335 7.33331C1.3335 4.02131 4.0215 1.33331 7.3335 1.33331C10.6455 1.33331 13.3335 4.02131 13.3335 7.33331C13.3354 8.69465 12.8723 10.0158 12.0208 11.078ZM10.6835 10.5833C11.5294 9.71312 12.0019 8.54689 12.0002 7.33331C12.0002 4.75531 9.9115 2.66665 7.3335 2.66665C4.7555 2.66665 2.66683 4.75531 2.66683 7.33331C2.66683 9.91131 4.7555 12 7.3335 12C8.54707 12.0017 9.7133 11.5292 10.5835 10.6833L10.6835 10.5833ZM6.66683 6.66665V4.66665H8.00016V6.66665H10.0002V7.99998H8.00016V9.99998H6.66683V7.99998H4.66683V6.66665H6.66683Z" fill="#636363"/>
</svg>
