<svg width="20" height="19" viewBox="0 0 20 19" fill="none" xmlns="http://www.w3.org/2000/svg">
<path d="M13.78 19V11.647H16.3722L16.76 8.78856H13.78V6.96561C13.78 6.13806 14.0222 5.57333 15.2711 5.57333H16.8644V3.01572C16.0931 2.93757 15.3179 2.89987 14.5422 2.90278C12.2456 2.90278 10.6733 4.23489 10.6733 6.68167V8.78856H8.07556V11.647H10.6733V19H1.11111C0.816426 19 0.533811 18.8888 0.325437 18.6908C0.117063 18.4929 0 18.2244 0 17.9444V1.05556C0 0.775605 0.117063 0.50712 0.325437 0.309165C0.533811 0.11121 0.816426 0 1.11111 0H18.8889C19.1836 0 19.4662 0.11121 19.6746 0.309165C19.8829 0.50712 20 0.775605 20 1.05556V17.9444C20 18.2244 19.8829 18.4929 19.6746 18.6908C19.4662 18.8888 19.1836 19 18.8889 19H13.78Z" fill="#636363"/>
</svg>
