<svg width="17" height="15" viewBox="0 0 17 15" fill="none" xmlns="http://www.w3.org/2000/svg">
<path d="M0.809524 6.24204H3.2381C3.45279 6.24204 3.6587 6.32592 3.81051 6.47523C3.96233 6.62455 4.04762 6.82706 4.04762 7.03822V14.2038C4.04762 14.415 3.96233 14.6175 3.81051 14.7668C3.6587 14.9161 3.45279 15 3.2381 15H0.809524C0.594825 15 0.388919 14.9161 0.237104 14.7668C0.0852888 14.6175 0 14.415 0 14.2038V7.03822C0 6.82706 0.0852888 6.62455 0.237104 6.47523C0.388919 6.32592 0.594825 6.24204 0.809524 6.24204ZM0.809524 7.03822V14.2038H3.2381V7.03822H0.809524ZM13.5352 13.4315L15.9638 9.45064C16.1095 9.21178 16.1905 8.92516 16.1905 8.63057V7.83439C16.1905 7.41208 16.0199 7.00705 15.7163 6.70843C15.4126 6.4098 15.0008 6.24204 14.5714 6.24204H10.03L11.2119 1.91083V1.8949C11.2502 1.76068 11.2509 1.61876 11.2139 1.48419C11.1768 1.34962 11.1034 1.22743 11.0014 1.13057L6.14429 5.91561C5.84476 6.20223 5.66667 6.60032 5.66667 7.03822V12.6115C5.66667 13.0338 5.83724 13.4388 6.14088 13.7374C6.44451 14.0361 6.85632 14.2038 7.28571 14.2038H12.1429C12.7338 14.2038 13.2519 13.8933 13.5352 13.4315ZM17 8.63057C17 9.10032 16.8624 9.54618 16.6195 9.91242L14.2638 13.7659C13.851 14.5064 13.0576 15 12.1429 15H7.28571C6.64162 15 6.0239 14.7484 5.56846 14.3004C5.11301 13.8525 4.85714 13.2449 4.85714 12.6115V7.03822C4.85714 6.37739 5.13238 5.78025 5.56952 5.35032L11.0014 0L11.5762 0.565286C12.0052 0.987261 12.1429 1.59236 11.989 2.13376L11.0824 5.44586H14.5714C15.2155 5.44586 15.8332 5.69751 16.2887 6.14545C16.7441 6.59338 17 7.20092 17 7.83439V8.63057Z" fill="black"/>
</svg>
