<svg width="78" height="13" viewBox="0 0 78 13" fill="none" xmlns="http://www.w3.org/2000/svg">
<path d="M6.82461 10.738L3.19461 12.93C3.08794 12.9827 2.98894 13.004 2.89761 12.994C2.80694 12.9833 2.71861 12.952 2.63261 12.9C2.54594 12.8467 2.48061 12.7713 2.43661 12.674C2.39261 12.5767 2.38861 12.4703 2.42461 12.355L3.39061 8.245L0.195609 5.475C0.105609 5.40167 0.0462762 5.314 0.0176095 5.212C-0.0110572 5.11 -0.00472378 5.01233 0.0366096 4.919C0.0779429 4.82567 0.132943 4.749 0.20161 4.689C0.270943 4.631 0.364276 4.59167 0.48161 4.571L4.69761 4.203L6.34161 0.311C6.38694 0.201 6.45228 0.121667 6.53761 0.073C6.62294 0.0243333 6.71861 0 6.82461 0C6.93061 0 7.02661 0.0243333 7.11261 0.073C7.19861 0.121667 7.26361 0.201 7.30761 0.311L8.95161 4.203L13.1666 4.571C13.2846 4.591 13.3783 4.63067 13.4476 4.69C13.5169 4.74867 13.5723 4.825 13.6136 4.919C13.6543 5.01233 13.6603 5.11 13.6316 5.212C13.6029 5.314 13.5436 5.40167 13.4536 5.475L10.2586 8.245L11.2246 12.355C11.2619 12.469 11.2583 12.575 11.2136 12.673C11.1689 12.771 11.1033 12.8463 11.0166 12.899C10.9313 12.9523 10.8429 12.984 10.7516 12.994C10.6609 13.004 10.5623 12.9827 10.4556 12.93L6.82461 10.738Z" fill="#FFCA4A"/>
<path d="M22.8246 10.738L19.1946 12.93C19.0879 12.9827 18.9889 13.004 18.8976 12.994C18.8069 12.9833 18.7186 12.952 18.6326 12.9C18.5459 12.8467 18.4806 12.7713 18.4366 12.674C18.3926 12.5767 18.3886 12.4703 18.4246 12.355L19.3906 8.245L16.1956 5.475C16.1056 5.40167 16.0463 5.314 16.0176 5.212C15.9889 5.11 15.9953 5.01233 16.0366 4.919C16.0779 4.82567 16.1329 4.749 16.2016 4.689C16.2709 4.631 16.3643 4.59167 16.4816 4.571L20.6976 4.203L22.3416 0.311C22.3869 0.201 22.4523 0.121667 22.5376 0.073C22.6229 0.0243333 22.7186 0 22.8246 0C22.9306 0 23.0266 0.0243333 23.1126 0.073C23.1986 0.121667 23.2636 0.201 23.3076 0.311L24.9516 4.203L29.1666 4.571C29.2846 4.591 29.3783 4.63067 29.4476 4.69C29.5169 4.74867 29.5723 4.825 29.6136 4.919C29.6543 5.01233 29.6603 5.11 29.6316 5.212C29.6029 5.314 29.5436 5.40167 29.4536 5.475L26.2586 8.245L27.2246 12.355C27.2619 12.469 27.2583 12.575 27.2136 12.673C27.1689 12.771 27.1033 12.8463 27.0166 12.899C26.9313 12.9523 26.8429 12.984 26.7516 12.994C26.6609 13.004 26.5623 12.9827 26.4556 12.93L22.8246 10.738Z" fill="#FFCA4A"/>
<path d="M38.8246 10.738L35.1946 12.93C35.0879 12.9827 34.9889 13.004 34.8976 12.994C34.8069 12.9833 34.7186 12.952 34.6326 12.9C34.5459 12.8467 34.4806 12.7713 34.4366 12.674C34.3926 12.5767 34.3886 12.4703 34.4246 12.355L35.3906 8.245L32.1956 5.475C32.1056 5.40167 32.0463 5.314 32.0176 5.212C31.9889 5.11 31.9953 5.01233 32.0366 4.919C32.0779 4.82567 32.1329 4.749 32.2016 4.689C32.2709 4.631 32.3643 4.59167 32.4816 4.571L36.6976 4.203L38.3416 0.311C38.3869 0.201 38.4523 0.121667 38.5376 0.073C38.6229 0.0243333 38.7186 0 38.8246 0C38.9306 0 39.0266 0.0243333 39.1126 0.073C39.1986 0.121667 39.2636 0.201 39.3076 0.311L40.9516 4.203L45.1666 4.571C45.2846 4.591 45.3783 4.63067 45.4476 4.69C45.5169 4.74867 45.5723 4.825 45.6136 4.919C45.6543 5.01233 45.6603 5.11 45.6316 5.212C45.6029 5.314 45.5436 5.40167 45.4536 5.475L42.2586 8.245L43.2246 12.355C43.2619 12.469 43.2583 12.575 43.2136 12.673C43.1689 12.771 43.1033 12.8463 43.0166 12.899C42.9313 12.9523 42.8429 12.984 42.7516 12.994C42.6609 13.004 42.5623 12.9827 42.4556 12.93L38.8246 10.738Z" fill="#FFCA4A"/>
<path d="M54.8246 10.738L51.1946 12.93C51.0879 12.9827 50.9889 13.004 50.8976 12.994C50.8069 12.9833 50.7186 12.952 50.6326 12.9C50.5459 12.8467 50.4806 12.7713 50.4366 12.674C50.3926 12.5767 50.3886 12.4703 50.4246 12.355L51.3906 8.245L48.1956 5.475C48.1056 5.40167 48.0463 5.314 48.0176 5.212C47.9889 5.11 47.9953 5.01233 48.0366 4.919C48.0779 4.82567 48.1329 4.749 48.2016 4.689C48.2709 4.631 48.3643 4.59167 48.4816 4.571L52.6976 4.203L54.3416 0.311C54.3869 0.201 54.4523 0.121667 54.5376 0.073C54.6229 0.0243333 54.7186 0 54.8246 0C54.9306 0 55.0266 0.0243333 55.1126 0.073C55.1986 0.121667 55.2636 0.201 55.3076 0.311L56.9516 4.203L61.1666 4.571C61.2846 4.591 61.3783 4.63067 61.4476 4.69C61.5169 4.74867 61.5723 4.825 61.6136 4.919C61.6543 5.01233 61.6603 5.11 61.6316 5.212C61.6029 5.314 61.5436 5.40167 61.4536 5.475L58.2586 8.245L59.2246 12.355C59.2619 12.469 59.2583 12.575 59.2136 12.673C59.1689 12.771 59.1033 12.8463 59.0166 12.899C58.9313 12.9523 58.8429 12.984 58.7516 12.994C58.6609 13.004 58.5623 12.9827 58.4556 12.93L54.8246 10.738Z" fill="#FFCA4A"/>
<path d="M70.8246 10.738L67.1946 12.93C67.0879 12.9827 66.9889 13.004 66.8976 12.994C66.8069 12.9833 66.7186 12.952 66.6326 12.9C66.5459 12.8467 66.4806 12.7713 66.4366 12.674C66.3926 12.5767 66.3886 12.4703 66.4246 12.355L67.3906 8.245L64.1956 5.475C64.1056 5.40167 64.0463 5.314 64.0176 5.212C63.9889 5.11 63.9953 5.01233 64.0366 4.919C64.0779 4.82567 64.1329 4.749 64.2016 4.689C64.2709 4.631 64.3643 4.59167 64.4816 4.571L68.6976 4.203L70.3416 0.311C70.3869 0.201 70.4523 0.121667 70.5376 0.073C70.6229 0.0243333 70.7186 0 70.8246 0C70.9306 0 71.0266 0.0243333 71.1126 0.073C71.1986 0.121667 71.2636 0.201 71.3076 0.311L72.9516 4.203L77.1666 4.571C77.2846 4.591 77.3783 4.63067 77.4476 4.69C77.5169 4.74867 77.5723 4.825 77.6136 4.919C77.6543 5.01233 77.6603 5.11 77.6316 5.212C77.6029 5.314 77.5436 5.40167 77.4536 5.475L74.2586 8.245L75.2246 12.355C75.2619 12.469 75.2583 12.575 75.2136 12.673C75.1689 12.771 75.1033 12.8463 75.0166 12.899C74.9313 12.9523 74.8429 12.984 74.7516 12.994C74.6609 13.004 74.5623 12.9827 74.4556 12.93L70.8246 10.738Z" fill="#FFCA4A"/>
</svg>
