<svg width="16" height="16" viewBox="0 0 16 16" fill="none" xmlns="http://www.w3.org/2000/svg">
<path d="M11.5013 15.2611C11.0263 15.7342 10.3825 16 9.71111 16C9.03978 16 8.39589 15.7342 7.92089 15.2611L0.886667 8.42222C0.38 7.959 0 7.26838 0 6.52722V2.52667C0 1.85655 0.266904 1.21389 0.741997 0.740044C1.21709 0.266202 1.86145 0 2.53333 0H6.54445C7.28756 0 7.98 0.379 8.44445 0.884334L15.2591 7.94216C15.7335 8.41591 16 9.0581 16 9.72767C16 10.3972 15.7335 11.0394 15.2591 11.5132L11.5013 15.2611ZM10.9018 14.6631L14.6596 10.9152C15.3182 10.2583 15.3182 9.18865 14.6596 8.53171L7.69289 1.33071C7.41422 1.01067 7.00889 0.842222 6.54445 0.842222L2.508 0.816956C1.57911 0.816956 0.844445 1.60022 0.844445 2.52667V6.52722C0.844445 6.99044 1.01333 7.39471 1.33422 7.67264L8.512 14.6631C9.17067 15.32 10.2431 15.32 10.9018 14.6631ZM3.8 1.68444C4.3599 1.68444 4.89687 1.90628 5.29278 2.30115C5.68869 2.69602 5.91111 3.23157 5.91111 3.79C5.91111 4.34843 5.68869 4.88398 5.29278 5.27885C4.89687 5.67372 4.3599 5.89556 3.8 5.89556C3.2401 5.89556 2.70313 5.67372 2.30722 5.27885C1.91131 4.88398 1.68889 4.34843 1.68889 3.79C1.68889 3.23157 1.91131 2.69602 2.30722 2.30115C2.70313 1.90628 3.2401 1.68444 3.8 1.68444ZM3.8 2.52667C3.46406 2.52667 3.14188 2.65977 2.90433 2.89669C2.66679 3.13361 2.53333 3.45494 2.53333 3.79C2.53333 4.12506 2.66679 4.44639 2.90433 4.68331C3.14188 4.92023 3.46406 5.05333 3.8 5.05333C4.13594 5.05333 4.45812 4.92023 4.69567 4.68331C4.93322 4.44639 5.06667 4.12506 5.06667 3.79C5.06667 3.45494 4.93322 3.13361 4.69567 2.89669C4.45812 2.65977 4.13594 2.52667 3.8 2.52667Z" fill="black"/>
</svg>
