<svg width="20" height="22" viewBox="0 0 20 22" fill="none" xmlns="http://www.w3.org/2000/svg">
<path d="M14.4444 6.87V14.8511C14.4441 16.3362 13.9767 17.7844 13.1071 18.9946C12.2376 20.2047 11.009 21.1168 9.592 21.6041C8.175 22.0914 6.6399 22.1298 5.19986 21.7139C3.75983 21.2981 2.48631 20.4486 1.55615 19.2834C0.62599 18.1183 0.0853473 16.6953 0.00929206 15.212C-0.0667632 13.7288 0.325544 12.2589 1.13174 11.0065C1.93793 9.75404 3.11801 8.78122 4.50811 8.2231C5.8982 7.66497 7.42933 7.54924 8.88889 7.89197V11.3715C8.12758 11.014 7.26957 10.9109 6.444 11.0779C5.61842 11.2448 4.86995 11.6727 4.31122 12.2972C3.7525 12.9217 3.41374 13.7089 3.34594 14.5405C3.27815 15.372 3.48497 16.2029 3.9353 16.908C4.38562 17.6131 5.05508 18.1544 5.84292 18.4502C6.63076 18.7461 7.49435 18.7807 8.30373 18.5487C9.11311 18.3167 9.82448 17.8307 10.3308 17.1638C10.8371 16.497 11.1109 15.6853 11.1111 14.8511V0H14.4444C14.4444 1.4588 15.0298 2.85784 16.0716 3.88937C17.1135 4.92089 18.5266 5.5004 20 5.5004V8.80064C17.9799 8.80328 16.0197 8.12206 14.4444 6.87Z" fill="#636363"/>
</svg>
